# xmcd CD database file
#
# Track frame offsets:
#	150
#	13518
#	26266
#	39654
#	51762
#	62231
#	79418
#	91412
#	103489
#	117403
#	131140
#	144606
#	158072
#	177059
#	190198
#	203925
#	217417
#	229453
#	242644
#
# Disc length: 3409 seconds
#
# Revision: 4
# Processed by: cddbd v1.5.2PL0 Copyright (c) Steve Scherf et al.
# Submitted via: CDex 1.51
#
DISCID=1c0d4f13
DTITLE=Memphis Slim and His House Rockers featuring Matt "Guitar" Murphy - Memphis Slim U.S.A.
DYEAR=1900
DGENRE=Blues
TTITLE0=Memphis Slim U.S.A.
TTITLE1=Sassy Mae
TTITLE2=Little Piece Of Mind
TTITLE3=Got To Find My Baby
TTITLE4=Banana Oil
TTITLE5=Blue And Lonesome
TTITLE6=Two Of A Kind
TTITLE7=She's Allright
TTITLE8=Blues All Around My Head
TTITLE9=Wish Me Well
TTITLE10=Four Years Of Torment
TTITLE11=Got To Find My Baby
TTITLE12=Slim Was Just Kiddin'
TTITLE13=Jive Time Bounce
TTITLE14=Backbone Boogie
TTITLE15=Memphis Slim U.S.A. (Alternate)
TTITLE16=She's Allright (Alternate)
TTITLE17=Blues All Around My Head (Alternate)
TTITLE18=Blue And Lonesome (Alternate)
EXTD=
EXTT0=
EXTT1=
EXTT2=
EXTT3=
EXTT4=
EXTT5=
EXTT6=
EXTT7=
EXTT8=
EXTT9=
EXTT10=
EXTT11=
EXTT12=
EXTT13=
EXTT14=
EXTT15=
EXTT16=
EXTT17=
EXTT18=
PLAYORDER=
